HIERARCHY
ROOT pelvis
{
  OFFSET 0 100 0
  CHANNELS 6 Xposition Yposition Zposition Zrotation Xrotation Yrotation
  JOINT pelvis_right_femur
  {
    OFFSET -10.78128 -3.44521 -0.5502486
    CHANNELS 3 Zrotation Xrotation Yrotation
    JOINT right_femur_tibia
    {
      OFFSET -0.8047443 -44.0398 -0.1307829
      CHANNELS 3 Zrotation Xrotation Yrotation
      JOINT right_tibia_foot
      {
        OFFSET 3.006224 -47.83518 -5
        CHANNELS 3 Zrotation Xrotation Yrotation
        End Site
        {
          OFFSET 0 -5 15
        }
      }
    }
  }
  JOINT pelvis_left_femur
  {
    OFFSET 10.78128 -3.44521 -0.5502486
    CHANNELS 3 Zrotation Xrotation Yrotation
    JOINT left_femur_tibia
    {
      OFFSET 0.8047443 -44.0398 -0.1307829
      CHANNELS 3 Zrotation Xrotation Yrotation
      JOINT left_tibia_foot
      {
        OFFSET -4.370144 -48.10324 -4.275266
        CHANNELS 3 Zrotation Xrotation Yrotation
        End Site
        {
          OFFSET 0 -5 15
        }
      }
    }
  }
  JOINT pelvis_spine1
  {
    OFFSET 0 6.468898 -3.129235
    CHANNELS 3 Zrotation Xrotation Yrotation
    JOINT spine1
    {
      OFFSET 0 23.15396 4.99043
      CHANNELS 3 Zrotation Xrotation Yrotation
      JOINT spine2
      {
        OFFSET 0 20.79997 -5.064912
        CHANNELS 3 Zrotation Xrotation Yrotation
        JOINT neck
        {
          OFFSET 0 14.38658 9.616178
          CHANNELS 3 Zrotation Xrotation Yrotation
          End Site
          {
            OFFSET 0 20 0
          }
        }
      }
      JOINT right_manubrium
      {
        OFFSET -5.722621 16.35077 3.967754
        CHANNELS 3 Zrotation Xrotation Yrotation
        JOINT right_clavicle
        {
          OFFSET -13.16364 1.694482 -4.693211
          CHANNELS 3 Zrotation Xrotation Yrotation
          JOINT right_humerus
          {
            OFFSET -28.5034 -0.3100689 -2.792744
            CHANNELS 3 Zrotation Xrotation Yrotation
            JOINT right_radius
            {
              OFFSET -25.15693 0.02248979 -1.271978
              CHANNELS 3 Zrotation Xrotation Yrotation
              End Site
              {
                OFFSET -15 0 0
              }
            }
          }
        }
      }
      JOINT left_manubrium
      {
        OFFSET 5.722621 16.35077 3.967754
        CHANNELS 3 Zrotation Xrotation Yrotation
        JOINT left_clavicle
        {
          OFFSET 13.16364 1.694482 -4.693211
          CHANNELS 3 Zrotation Xrotation Yrotation
          JOINT left_humerus
          {
            OFFSET 29.39168 -1.063119 -2.237045
            CHANNELS 3 Zrotation Xrotation Yrotation
            JOINT left_radius
            {
              OFFSET 24.59957 -0.9528479 0.9047498
              CHANNELS 3 Zrotation Xrotation Yrotation
              End Site
              {
                OFFSET 15 -0 -0
              }
            }
          }
        }
      }
    }
  }
}
MOTION
Frames: 15
Frame Time: 0.0416666666667
-594.7485 112.423 2928.728 -5.755861 -7.202252 -42.83005 2.228839 9.318711 -4.782703 -0 21.37116 -0 -15.40482 -3.33422 1.971731 -0.2295058 -13.07661 -5.196979 -0 12.8563 -0 0.5107613 -1.674575 14.09494 0.1129225 -3.05764 6.90818 -0.6145762 14.13701 -4.454392 -0.292532 22.12863 6.363292 5.357626 -14.62732 3.278431 0.324723 -26.33414 12.8147 87.95808 18.39886 -11.71142 -0 0 20.29957 -25.9701 10.74408 13.55117 4.371816 -25.44216 -10.03754 -94.21 8.666299 31.4541 0 0 -7.004643 10.58931 15.15202 0.9733894
-597.9362 112.4052 2933.995 -5.765892 -7.19424 -42.9101 2.228839 9.318711 -4.782703 -0 21.37116 -0 -15.40482 -3.33422 1.971731 -0.2295058 -13.07661 -5.196979 -0 12.8563 -0 0.5107613 -1.674575 14.09494 0.1129225 -3.05764 6.90818 -0.6145762 14.13701 -4.454392 -0.292532 22.12863 6.363292 5.357626 -14.62732 3.278431 0.324723 -26.33414 12.8147 87.95808 18.39886 -11.71142 -0 0 20.29957 -25.9701 10.74408 13.55117 4.371816 -25.44216 -10.03754 -94.21 8.666299 31.4541 0 0 -7.004643 10.58931 15.15202 0.9733894
-601.1313 112.3873 2939.257 -5.775911 -7.186213 -42.99015 2.228839 9.318711 -4.782703 -0 21.37116 -0 -15.40482 -3.33422 1.971731 -0.2295058 -13.07661 -5.196979 -0 12.8563 -0 0.5107613 -1.674575 14.09494 0.1129225 -3.05764 6.90818 -0.6145762 14.13701 -4.454392 -0.292532 22.12863 6.363292 5.357626 -14.62732 3.278431 0.324723 -26.33414 12.8147 87.95808 18.39886 -11.71142 -0 0 20.29957 -25.9701 10.74408 13.55117 4.371816 -25.44216 -10.03754 -94.21 8.666299 31.4541 0 0 -7.004643 10.58931 15.15202 0.9733894
-604.3337 112.3695 2944.514 -5.785919 -7.178173 -43.0702 2.228839 9.318711 -4.782703 -0 21.37116 -0 -15.40482 -3.33422 1.971731 -0.2295058 -13.07661 -5.196979 -0 12.8563 -0 0.5107613 -1.674575 14.09494 0.1129225 -3.05764 6.90818 -0.6145762 14.13701 -4.454392 -0.292532 22.12863 6.363292 5.357626 -14.62732 3.278431 0.324723 -26.33414 12.8147 87.95808 18.39886 -11.71142 -0 0 20.29957 -25.9701 10.74408 13.55117 4.371816 -25.44216 -10.03754 -94.21 8.666299 31.4541 0 0 -7.004643 10.58931 15.15202 0.9733894
-607.5434 112.3516 2949.767 -5.795915 -7.170119 -43.15024 2.228839 9.318711 -4.782703 -0 21.37116 -0 -15.40482 -3.33422 1.971731 -0.2295058 -13.07661 -5.196979 -0 12.8563 -0 0.5107613 -1.674575 14.09494 0.1129225 -3.05764 6.90818 -0.6145762 14.13701 -4.454392 -0.292532 22.12863 6.363292 5.357626 -14.62732 3.278431 0.324723 -26.33414 12.8147 87.95808 18.39886 -11.71142 -0 0 20.29957 -25.9701 10.74408 13.55117 4.371816 -25.44216 -10.03754 -94.21 8.666299 31.4541 0 0 -7.004643 10.58931 15.15202 0.9733894
-610.7604 112.3337 2955.016 -5.8059 -7.162051 -43.23028 2.228839 9.318711 -4.782703 -0 21.37116 -0 -15.40482 -3.33422 1.971731 -0.2295058 -13.07661 -5.196979 -0 12.8563 -0 0.5107613 -1.674575 14.09494 0.1129225 -3.05764 6.90818 -0.6145762 14.13701 -4.454392 -0.292532 22.12863 6.363292 5.357626 -14.62732 3.278431 0.324723 -26.33414 12.8147 87.95808 18.39886 -11.71142 -0 0 20.29957 -25.9701 10.74408 13.55117 4.371816 -25.44216 -10.03754 -94.21 8.666299 31.4541 0 0 -7.004643 10.58931 15.15202 0.9733894
-613.9848 112.3159 2960.26 -5.815874 -7.153969 -43.31032 2.228839 9.318711 -4.782703 -0 21.37116 -0 -15.40482 -3.33422 1.971731 -0.2295058 -13.07661 -5.196979 -0 12.8563 -0 0.5107613 -1.674575 14.09494 0.1129225 -3.05764 6.90818 -0.6145762 14.13701 -4.454392 -0.292532 22.12863 6.363292 5.357626 -14.62732 3.278431 0.324723 -26.33414 12.8147 87.95808 18.39886 -11.71142 -0 0 20.29957 -25.9701 10.74408 13.55117 4.371816 -25.44216 -10.03754 -94.21 8.666299 31.4541 0 0 -7.004643 10.58931 15.15202 0.9733894
-617.2164 112.298 2965.499 -5.825835 -7.145873 -43.39036 2.228839 9.318711 -4.782703 -0 21.37116 -0 -15.40482 -3.33422 1.971731 -0.2295058 -13.07661 -5.196979 -0 12.8563 -0 0.5107613 -1.674575 14.09494 0.1129225 -3.05764 6.90818 -0.6145762 14.13701 -4.454392 -0.292532 22.12863 6.363292 5.357626 -14.62732 3.278431 0.324723 -26.33414 12.8147 87.95808 18.39886 -11.71142 -0 0 20.29957 -25.9701 10.74408 13.55117 4.371816 -25.44216 -10.03754 -94.21 8.666299 31.4541 0 0 -7.004643 10.58931 15.15202 0.9733894
-620.4554 112.2802 2970.734 -5.835785 -7.137763 -43.47039 2.228839 9.318711 -4.782703 -0 21.37116 -0 -15.40482 -3.33422 1.971731 -0.2295058 -13.07661 -5.196979 -0 12.8563 -0 0.5107613 -1.674575 14.09494 0.1129225 -3.05764 6.90818 -0.6145762 14.13701 -4.454392 -0.292532 22.12863 6.363292 5.357626 -14.62732 3.278431 0.324723 -26.33414 12.8147 87.95808 18.39886 -11.71142 -0 0 20.29957 -25.9701 10.74408 13.55117 4.371816 -25.44216 -10.03754 -94.21 8.666299 31.4541 0 0 -7.004643 10.58931 15.15202 0.9733894
-623.7016 112.2623 2975.965 -5.845724 -7.12964 -43.55042 2.228839 9.318711 -4.782703 -0 21.37116 -0 -15.40482 -3.33422 1.971731 -0.2295058 -13.07661 -5.196979 -0 12.8563 -0 0.5107613 -1.674575 14.09494 0.1129225 -3.05764 6.90818 -0.6145762 14.13701 -4.454392 -0.292532 22.12863 6.363292 5.357626 -14.62732 3.278431 0.324723 -26.33414 12.8147 87.95808 18.39886 -11.71142 -0 0 20.29957 -25.9701 10.74408 13.55117 4.371816 -25.44216 -10.03754 -94.21 8.666299 31.4541 0 0 -7.004643 10.58931 15.15202 0.9733894
-626.9552 112.2444 2981.191 -5.855651 -7.121503 -43.63045 2.228839 9.318711 -4.782703 -0 21.37116 -0 -15.40482 -3.33422 1.971731 -0.2295058 -13.07661 -5.196979 -0 12.8563 -0 0.5107613 -1.674575 14.09494 0.1129225 -3.05764 6.90818 -0.6145762 14.13701 -4.454392 -0.292532 22.12863 6.363292 5.357626 -14.62732 3.278431 0.324723 -26.33414 12.8147 87.95808 18.39886 -11.71142 -0 0 20.29957 -25.9701 10.74408 13.55117 4.371816 -25.44216 -10.03754 -94.21 8.666299 31.4541 0 0 -7.004643 10.58931 15.15202 0.9733894
-630.216 112.2266 2986.412 -5.865566 -7.113352 -43.71048 2.228839 9.318711 -4.782703 -0 21.37116 -0 -15.40482 -3.33422 1.971731 -0.2295058 -13.07661 -5.196979 -0 12.8563 -0 0.5107613 -1.674575 14.09494 0.1129225 -3.05764 6.90818 -0.6145762 14.13701 -4.454392 -0.292532 22.12863 6.363292 5.357626 -14.62732 3.278431 0.324723 -26.33414 12.8147 87.95808 18.39886 -11.71142 -0 0 20.29957 -25.9701 10.74408 13.55117 4.371816 -25.44216 -10.03754 -94.21 8.666299 31.4541 0 0 -7.004643 10.58931 15.15202 0.9733894
-633.484 112.2087 2991.629 -5.87547 -7.105187 -43.7905 2.228839 9.318711 -4.782703 -0 21.37116 -0 -15.40482 -3.33422 1.971731 -0.2295058 -13.07661 -5.196979 -0 12.8563 -0 0.5107613 -1.674575 14.09494 0.1129225 -3.05764 6.90818 -0.6145762 14.13701 -4.454392 -0.292532 22.12863 6.363292 5.357626 -14.62732 3.278431 0.324723 -26.33414 12.8147 87.95808 18.39886 -11.71142 -0 0 20.29957 -25.9701 10.74408 13.55117 4.371816 -25.44216 -10.03754 -94.21 8.666299 31.4541 0 0 -7.004643 10.58931 15.15202 0.9733894
-636.7594 112.1909 2996.842 -5.885362 -7.097009 -43.87052 2.228839 9.318711 -4.782703 -0 21.37116 -0 -15.40482 -3.33422 1.971731 -0.2295058 -13.07661 -5.196979 -0 12.8563 -0 0.5107613 -1.674575 14.09494 0.1129225 -3.05764 6.90818 -0.6145762 14.13701 -4.454392 -0.292532 22.12863 6.363292 5.357626 -14.62732 3.278431 0.324723 -26.33414 12.8147 87.95808 18.39886 -11.71142 -0 0 20.29957 -25.9701 10.74408 13.55117 4.371816 -25.44216 -10.03754 -94.21 8.666299 31.4541 0 0 -7.004643 10.58931 15.15202 0.9733894
-640.042 112.173 3002.05 -5.895242 -7.088817 -43.95053 2.228839 9.318711 -4.782703 -0 21.37116 -0 -15.40482 -3.33422 1.971731 -0.2295058 -13.07661 -5.196979 -0 12.8563 -0 0.5107613 -1.674575 14.09494 0.1129225 -3.05764 6.90818 -0.6145762 14.13701 -4.454392 -0.292532 22.12863 6.363292 5.357626 -14.62732 3.278431 0.324723 -26.33414 12.8147 87.95808 18.39886 -11.71142 -0 0 20.29957 -25.9701 10.74408 13.55117 4.371816 -25.44216 -10.03754 -94.21 8.666299 31.4541 0 0 -7.004643 10.58931 15.15202 0.9733894
